<svg width="1746" height="910" viewBox="0 0 1746 910" fill="none" xmlns="http://www.w3.org/2000/svg">
<path fill-rule="evenodd" clip-rule="evenodd" d="M864.25 0.00984756C1021.8 0.676819 1171.77 32.5617 1303.4 75.8567C1430.53 117.673 1526.42 177.167 1602.87 242.958C1679.48 308.878 1739.88 380.004 1745.37 456.196C1750.96 533.848 1719.85 613.642 1634.26 678.494C1550.64 741.843 1406.07 773.659 1275.38 812.272C1143.46 851.25 1016.43 897.061 864.25 906.008C703.13 915.48 526.288 910.549 393.238 864.133C262.243 818.435 226.978 732.088 158.722 659.879C95.7647 593.275 22.65 529.481 7.63555 456.196C-8.35763 378.133 -4.32424 296.012 70.0165 226.903C145.168 157.041 283.041 111.472 420.79 72.1202C558.096 32.8953 706.122 -0.659586 864.25 0.00984756Z" fill="#B7E07A"/>
</svg>
