<svg width="1465" height="1274" viewBox="0 0 1465 1274" fill="none" xmlns="http://www.w3.org/2000/svg">
<path fill-rule="evenodd" clip-rule="evenodd" d="M724.398 4.14939C590.338 -10.0224 454.364 12.2421 333.988 68.8766C205.267 129.437 74.7325 210.477 21.2062 334.985C-31.668 457.977 27.9859 592.731 52.7083 723.167C76.6081 849.262 77.3606 985.161 163.394 1085.17C250.752 1186.71 385.266 1248.54 523.228 1270.11C653.303 1290.44 774.528 1225.71 903.7 1200.9C1047 1173.37 1222.18 1213.91 1324.05 1116.29C1425.72 1018.85 1381.84 858.384 1401.45 723.883C1420.86 590.679 1507.97 448.268 1438.62 330.303C1369.12 212.076 1191.72 205.21 1061.61 145.796C948.615 94.1946 849.495 17.3738 724.398 4.14939Z" fill="#C0FFCD"/>
</svg>
