<svg width="1750" height="724" viewBox="0 0 1750 724" fill="none" xmlns="http://www.w3.org/2000/svg">
<path fill-rule="evenodd" clip-rule="evenodd" d="M865.321 2.35805C705.182 -5.69563 542.756 6.95707 398.962 39.1418C245.2 73.5575 89.2709 119.612 25.3316 190.369C-37.8287 260.263 33.4302 336.842 62.9621 410.968C91.5114 482.626 92.4102 559.856 195.18 616.688C299.534 674.397 460.216 709.531 625.016 721.787C780.396 733.343 925.204 696.557 1079.51 682.457C1250.68 666.815 1459.94 689.852 1581.63 634.373C1703.08 578.999 1650.66 487.81 1674.08 411.375C1697.28 335.677 1801.33 254.746 1718.49 187.708C1635.47 120.521 1423.56 116.619 1268.14 82.8542C1133.16 53.5297 1014.76 9.87336 865.321 2.35805Z" fill="#C0FFCD"/>
</svg>
