<svg width="1116" height="803" viewBox="0 0 1116 803" fill="none" xmlns="http://www.w3.org/2000/svg">
<path fill-rule="evenodd" clip-rule="evenodd" d="M630.023 51.7836C557.593 -2.73251 433.209 -19.7369 221.538 27.777C128.324 62.2026 108.428 198.438 69.6661 269.215C31.3769 339.13 -13.6553 416.138 4.24762 490.285C21.5548 561.964 54.3196 704.597 116.621 761.445C179.882 819.17 333.303 788.527 433.209 800.787C527.403 812.346 615.189 775.549 708.73 761.445C812.502 745.799 939.361 768.842 1013.13 713.348C1086.76 657.957 1054.98 566.742 1069.18 490.285C1083.24 414.565 1146.32 333.611 1096.1 266.553C1045.77 199.347 917.302 195.444 823.084 161.67C741.255 132.337 720.614 59.3011 630.023 51.7836Z" fill="#C0FFCD"/>
</svg>
