<svg width="742" height="902" viewBox="0 0 742 902" fill="none" xmlns="http://www.w3.org/2000/svg">
<path d="M597.03 24.2962C522.434 -1.23281 442.449 -6.76 365.05 8.26581C287.651 23.2916 215.544 58.3454 155.918 109.932C96.2925 161.518 51.2323 227.834 25.2308 302.267C-0.770765 376.7 -6.80502 456.649 7.72972 534.141C22.2645 611.634 56.8603 683.962 108.067 743.913C159.274 803.865 225.303 849.345 299.57 875.818C373.837 902.291 453.746 908.832 531.329 894.789C608.912 880.745 681.458 846.609 741.733 795.783L717.114 766.587C661.943 813.109 595.54 844.355 524.527 857.209C453.513 870.063 380.371 864.075 312.393 839.844C244.415 815.613 183.978 773.984 137.107 719.11C90.2359 664.235 58.5696 598.031 45.2656 527.101C31.9617 456.17 37.485 382.991 61.2847 314.861C85.0844 246.731 126.329 186.031 180.905 138.813C235.482 91.5952 301.483 59.5098 372.328 45.7563C443.173 32.0029 516.385 37.062 584.665 60.4293L597.03 24.2962Z" fill="#B4A17F"/>
</svg>
