<svg width="750" height="902" viewBox="0 0 750 902" fill="none" xmlns="http://www.w3.org/2000/svg">
<path d="M271.362 901.152C345.39 905.697 419.397 891.915 486.826 861.027C554.256 830.139 613.027 783.098 657.933 724.071C702.84 665.044 732.497 595.853 744.276 522.627C756.055 449.401 749.593 374.4 725.463 304.268C701.333 234.135 660.279 171.037 605.938 120.56C551.596 70.0842 485.646 33.7887 413.927 14.8889C342.208 -4.01088 266.935 -4.93159 194.775 12.2084C122.615 29.3483 55.7961 64.0198 0.236576 113.152L25.5357 141.761C76.3905 96.7891 137.551 65.0536 203.601 49.365C269.65 33.6765 338.549 34.5192 404.195 51.8186C469.84 69.118 530.207 102.34 579.946 148.542C629.686 194.744 667.263 252.499 689.35 316.693C711.437 380.886 717.352 449.536 706.57 516.562C695.788 583.587 668.643 646.919 627.539 700.948C586.435 754.976 532.641 798.034 470.921 826.306C409.202 854.579 341.462 867.194 273.703 863.034L271.362 901.152Z" fill="#B4A17F"/>
</svg>
