<svg width="902" height="685" viewBox="0 0 902 685" fill="none" xmlns="http://www.w3.org/2000/svg">
<path d="M65.1459 0.509863C24.3273 67.9648 1.90536 144.942 0.116144 223.765C-1.67308 302.589 17.2329 380.504 54.9488 449.742C92.6647 518.979 147.873 577.12 215.067 618.365C282.262 659.611 359.095 682.521 437.906 684.81C516.716 687.099 594.75 668.688 664.225 631.412C733.701 594.136 792.19 539.298 833.861 472.366C875.532 405.434 898.929 328.748 901.718 249.953C904.507 171.159 886.591 93.0101 849.756 23.2997L815.99 41.1417C849.705 104.949 866.104 176.48 863.551 248.602C860.998 320.724 839.583 390.917 801.441 452.181C763.298 513.445 709.762 563.64 646.169 597.759C582.577 631.878 511.151 648.731 439.015 646.636C366.878 644.54 296.551 623.571 235.046 585.817C173.541 548.064 123.008 494.847 88.4862 431.473C53.9641 368.098 36.6591 296.781 38.2968 224.632C39.9345 152.483 60.4577 82.0246 97.8199 20.2817L65.1459 0.509863Z" fill="#B4A17F"/>
</svg>
