<svg width="20" height="20" viewBox="0 0 20 20" fill="none" xmlns="http://www.w3.org/2000/svg">
<g clip-path="url(#clip0_177_106)">
<path d="M10 0C12.6522 0 15.1957 1.05357 17.0711 2.92893C18.9464 4.8043 20 7.34784 20 10C20 12.6522 18.9464 15.1957 17.0711 17.0711C15.1957 18.9464 12.6522 20 10 20C7.34784 20 4.8043 18.9464 2.92893 17.0711C1.05357 15.1957 0 12.6522 0 10C0 7.34784 1.05357 4.8043 2.92893 2.92893C4.8043 1.05357 7.34784 0 10 0ZM10 1.25C7.80807 1.24831 5.69533 2.06937 4.07975 3.55075C2.46417 5.03213 1.46342 7.06592 1.27549 9.24978C1.08756 11.4336 1.72612 13.6085 3.06486 15.3441C4.4036 17.0797 6.345 18.2497 8.505 18.6225V12.715H6.03125V10.075H8.50625V8.315C8.50625 5.405 9.91625 4.1275 12.3238 4.1275C13.4763 4.1275 14.0862 4.2125 14.3737 4.2525V6.5575H12.7325C11.71 6.5575 11.3538 7.5325 11.3538 8.62875V10.075H14.3488L13.9412 12.7163H11.3538V18.6475C13.5281 18.3036 15.493 17.1529 16.8568 15.4248C18.2206 13.6968 18.8832 11.5182 18.7124 9.32348C18.5416 7.12872 17.55 5.07892 15.9353 3.58263C14.3206 2.08634 12.2014 1.25346 10 1.25Z" fill="#FFFBFB"/>
</g>
<defs>
<clipPath id="clip0_177_106">
<rect width="20" height="20" fill="white"/>
</clipPath>
</defs>
</svg>
