<svg width="600" height="600" viewBox="0 0 600 600" fill="none" xmlns="http://www.w3.org/2000/svg">
<path d="M193.058 43.8476C146.468 63.2987 106.065 95.0881 76.1985 135.794C46.3321 176.5 28.1331 224.581 23.5607 274.861C18.9882 325.14 28.2154 375.715 50.249 421.141C72.2826 466.567 106.288 505.123 148.605 532.659C190.922 560.195 239.948 575.669 290.405 577.414C340.862 579.159 390.84 567.11 434.958 542.563C479.077 518.017 515.665 481.902 540.784 438.107C565.904 394.313 578.603 344.496 577.516 294.02L554.016 294.527C555.011 340.728 543.387 386.326 520.395 426.412C497.402 466.499 463.912 499.555 423.53 522.023C383.148 544.491 337.402 555.52 291.217 553.923C245.033 552.325 200.159 538.162 161.425 512.958C122.692 487.753 91.5656 452.462 71.3978 410.883C51.23 369.304 42.7841 323.012 46.9694 276.989C51.1547 230.967 67.8126 186.958 95.1499 149.699C122.487 112.44 159.469 83.3424 202.114 65.5385L193.058 43.8476Z" fill="#B4A17F"/>
<path d="M0 300C0 350.406 12.7009 400 36.9297 444.201C61.1585 488.403 96.1342 525.786 138.627 552.901L140.713 549.632C98.7694 522.868 64.2458 485.967 40.3301 442.337C16.4145 398.707 3.87778 349.755 3.87778 300H0Z" fill="#B4A17F"/>
</svg>
