<svg width="18" height="12" viewBox="0 0 18 12" fill="none" xmlns="http://www.w3.org/2000/svg">
<path fill-rule="evenodd" clip-rule="evenodd" d="M17.75 1C17.75 1.19891 17.671 1.38968 17.5303 1.53033C17.3897 1.67098 17.1989 1.75 17 1.75H1C0.801088 1.75 0.610322 1.67098 0.46967 1.53033C0.329018 1.38968 0.25 1.19891 0.25 1C0.25 0.801088 0.329018 0.610322 0.46967 0.46967C0.610322 0.329018 0.801088 0.25 1 0.25H17C17.1989 0.25 17.3897 0.329018 17.5303 0.46967C17.671 0.610322 17.75 0.801088 17.75 1ZM17.75 6C17.75 6.19891 17.671 6.38968 17.5303 6.53033C17.3897 6.67098 17.1989 6.75 17 6.75H1C0.801088 6.75 0.610322 6.67098 0.46967 6.53033C0.329018 6.38968 0.25 6.19891 0.25 6C0.25 5.80109 0.329018 5.61032 0.46967 5.46967C0.610322 5.32902 0.801088 5.25 1 5.25H17C17.1989 5.25 17.3897 5.32902 17.5303 5.46967C17.671 5.61032 17.75 5.80109 17.75 6ZM17.75 11C17.75 11.1989 17.671 11.3897 17.5303 11.5303C17.3897 11.671 17.1989 11.75 17 11.75H1C0.801088 11.75 0.610322 11.671 0.46967 11.5303C0.329018 11.3897 0.25 11.1989 0.25 11C0.25 10.8011 0.329018 10.6103 0.46967 10.4697C0.610322 10.329 0.801088 10.25 1 10.25H17C17.1989 10.25 17.3897 10.329 17.5303 10.4697C17.671 10.6103 17.75 10.8011 17.75 11Z" fill="black"/>
</svg>
