<svg width="23" height="22" viewBox="0 0 23 22" fill="none" xmlns="http://www.w3.org/2000/svg">
<path d="M1.5 11C1.5 6.522 1.5 4.282 2.96421 2.891C4.42842 1.5 6.78526 1.5 11.5 1.5C16.2137 1.5 18.5716 1.5 20.0358 2.891C21.5 4.282 21.5 6.521 21.5 11C21.5 15.478 21.5 17.718 20.0358 19.109C18.5716 20.5 16.2147 20.5 11.5 20.5C6.78632 20.5 4.42842 20.5 2.96421 19.109C1.5 17.718 1.5 15.479 1.5 11Z" stroke="white" stroke-width="1.5" stroke-linecap="round" stroke-linejoin="round"/>
<path d="M17.2965 5.5H17.2859M16.2354 11C16.2354 12.1935 15.7363 13.3381 14.848 14.182C13.9597 15.0259 12.7548 15.5 11.4986 15.5C10.2423 15.5 9.03744 15.0259 8.14911 14.182C7.26078 13.3381 6.76172 12.1935 6.76172 11C6.76172 9.80653 7.26078 8.66193 8.14911 7.81802C9.03744 6.97411 10.2423 6.5 11.4986 6.5C12.7548 6.5 13.9597 6.97411 14.848 7.81802C15.7363 8.66193 16.2354 9.80653 16.2354 11Z" stroke="white" stroke-width="1.5" stroke-linecap="round" stroke-linejoin="round"/>
</svg>
