<svg width="30" height="25" viewBox="0 0 30 25" fill="none" xmlns="http://www.w3.org/2000/svg">
<path d="M6.875 6.75C6.875 6.25754 6.972 5.76991 7.16045 5.31494C7.34891 4.85997 7.62513 4.44657 7.97335 4.09835C8.32157 3.75013 8.73497 3.47391 9.18994 3.28545C9.64491 3.097 10.1325 3 10.625 3C11.1175 3 11.6051 3.097 12.0601 3.28545C12.515 3.47391 12.9284 3.75013 13.2767 4.09835C13.6249 4.44657 13.9011 4.85997 14.0895 5.31494C14.278 5.76991 14.375 6.25754 14.375 6.75C14.375 7.74456 13.9799 8.69839 13.2767 9.40165C12.5734 10.1049 11.6196 10.5 10.625 10.5C9.63044 10.5 8.67661 10.1049 7.97335 9.40165C7.27009 8.69839 6.875 7.74456 6.875 6.75ZM10.625 0.5C8.9674 0.5 7.37769 1.15848 6.20558 2.33058C5.03348 3.50269 4.375 5.0924 4.375 6.75C4.375 8.4076 5.03348 9.99731 6.20558 11.1694C7.37769 12.3415 8.9674 13 10.625 13C12.2826 13 13.8723 12.3415 15.0444 11.1694C16.2165 9.99731 16.875 8.4076 16.875 6.75C16.875 5.0924 16.2165 3.50269 15.0444 2.33058C13.8723 1.15848 12.2826 0.5 10.625 0.5ZM19.375 0.5H18.125V3H19.375C19.8675 3 20.3551 3.097 20.8101 3.28545C21.265 3.47391 21.6784 3.75013 22.0267 4.09835C22.3749 4.44657 22.6511 4.85997 22.8395 5.31494C23.028 5.76991 23.125 6.25754 23.125 6.75C23.125 7.24246 23.028 7.73009 22.8395 8.18506C22.6511 8.64003 22.3749 9.05343 22.0267 9.40165C21.6784 9.74987 21.265 10.0261 20.8101 10.2145C20.3551 10.403 19.8675 10.5 19.375 10.5H18.125V13H19.375C21.0326 13 22.6223 12.3415 23.7944 11.1694C24.9665 9.99731 25.625 8.4076 25.625 6.75C25.625 5.0924 24.9665 3.50269 23.7944 2.33058C22.6223 1.15848 21.0326 0.5 19.375 0.5ZM0 21.75C0 20.0924 0.65848 18.5027 1.83058 17.3306C3.00269 16.1585 4.5924 15.5 6.25 15.5H15C16.6576 15.5 18.2473 16.1585 19.4194 17.3306C20.5915 18.5027 21.25 20.0924 21.25 21.75V24.25H18.75V21.75C18.75 20.7554 18.3549 19.8016 17.6517 19.0983C16.9484 18.3951 15.9946 18 15 18H6.25C5.25544 18 4.30161 18.3951 3.59835 19.0983C2.89509 19.8016 2.5 20.7554 2.5 21.75V24.25H0V21.75ZM30 21.75C30 20.9292 29.8383 20.1165 29.5242 19.3582C29.2102 18.5999 28.7498 17.9109 28.1694 17.3306C27.5891 16.7502 26.9001 16.2898 26.1418 15.9758C25.3835 15.6617 24.5708 15.5 23.75 15.5H22.5V18H23.75C24.7446 18 25.6984 18.3951 26.4017 19.0983C27.1049 19.8016 27.5 20.7554 27.5 21.75V24.25H30V21.75Z" fill="black"/>
</svg>
