<svg width="74" height="88" viewBox="0 0 74 88" fill="none" xmlns="http://www.w3.org/2000/svg">
<path d="M37 0.5C46.6838 0.5 55.9692 4.26539 62.8135 10.9648C69.6573 17.6639 73.5 26.7476 73.5 36.2168C73.5 51.2847 62.6715 67.8344 41.0049 86.0479H41.0039C39.8891 86.9851 38.4661 87.5013 36.9932 87.5C35.6122 87.4988 34.2761 87.0428 33.1973 86.2119L32.9854 86.041L31.5518 84.8232C10.8482 67.0879 0.5 50.947 0.5 36.2168C0.500049 26.7476 4.34267 17.6639 11.1865 10.9648C18.0308 4.26539 27.3162 0.5 37 0.5ZM37 21.7871C33.0967 21.7871 29.3512 23.3051 26.5879 26.0098C23.8242 28.7149 22.2696 32.3864 22.2695 36.2168C22.2695 40.0473 23.8242 43.7186 26.5879 46.4238C29.3512 49.1286 33.0966 50.6465 37 50.6465C40.9034 50.6465 44.6488 49.1286 47.4121 46.4238C50.1758 43.7186 51.7305 40.0473 51.7305 36.2168C51.7304 32.3864 50.1758 28.7149 47.4121 26.0098C44.6488 23.3051 40.9033 21.7871 37 21.7871Z" fill="white" stroke="#A78A7F"/>
</svg>
